STARTFONT 2.1
COMMENT
COMMENT Converted from OpenType font "Q:\font stuff\winfont\luggageroundregular.ttf" by "otf2bdf 3.0".
COMMENT
FONT -FreeType-LuggageRound-Medium-R-Normal--36-360-72-72-P-171-ISO10646-1
SIZE 36 72 72
FONTBOUNDINGBOX 26 44 0 -8
STARTPROPERTIES 19
FOUNDRY "FreeType"
FAMILY_NAME "LuggageRound"
WEIGHT_NAME "Medium"
SLANT "R"
SETWIDTH_NAME "Normal"
ADD_STYLE_NAME ""
PIXEL_SIZE 28
POINT_SIZE 360
RESOLUTION_X 72
RESOLUTION_Y 72
SPACING "P"
AVERAGE_WIDTH 171
CHARSET_REGISTRY "ISO10646"
CHARSET_ENCODING "1"
FONT_ASCENT 36
FONT_DESCENT 6
COPYRIGHT "LuggageRoundRegular"
_OTF_FONTFILE "Q:\font stuff\winfont\luggageroundregular.ttf"
_OTF_PSNAME "LuggageRoundRegular"
ENDPROPERTIES
CHARS 195
STARTCHAR 0020
ENCODING 32
SWIDTH 472 0
DWIDTH 17 0
BBX 0 0 0 0
BITMAP
ENDCHAR
STARTCHAR 0021
ENCODING 33
SWIDTH 194 0
DWIDTH 7 0
BBX 4 20 2 1
BITMAP
E0
F0
F0
F0
F0
F0
F0
F0
F0
F0
F0
E0
00
00
00
00
E0
F0
F0
E0
ENDCHAR
STARTCHAR 0022
ENCODING 34
SWIDTH 388 0
DWIDTH 14 0
BBX 10 8 2 12
BITMAP
E3C0
F3C0
F3C0
F3C0
F3C0
F3C0
F3C0
E3C0
ENDCHAR
STARTCHAR 0023
ENCODING 35
SWIDTH 638 0
DWIDTH 23 0
BBX 20 20 2 1
BITMAP
0E0E00
0F0F00
0F0F00
1F1F00
FFFFE0
FFFFF0
FFFFF0
FFFFE0
1F1F00
0F0F00
0F0F00
1F1F00
FFFFE0
FFFFF0
FFFFF0
FFFFE0
1F1F00
0F0F00
0F0F00
0E0E00
ENDCHAR
STARTCHAR 0024
ENCODING 36
SWIDTH 638 0
DWIDTH 23 0
BBX 20 28 2 -3
BITMAP
0E0E00
0F0F00
0F0F00
1F1F00
FFFFE0
FFFFF0
FFFFF0
FFFFE0
F00000
F00000
F00000
F00000
FFFFE0
FFFFF0
FFFFF0
FFFFF0
0001F0
0000F0
0000F0
0001F0
FFFFF0
FFFFF0
FFFFF0
FFFFE0
1F1F00
0F0F00
0F0F00
0E0E00
ENDCHAR
STARTCHAR 0025
ENCODING 37
SWIDTH 638 0
DWIDTH 23 0
BBX 20 20 2 1
BITMAP
E00E00
F00F00
F00F00
E00F00
000F00
000F00
000F00
001F00
0FFF00
0FFF00
0FFF00
0FFE00
0F0000
0F0000
0F0000
0F0000
0F00E0
0F00F0
0F00F0
0E00E0
ENDCHAR
STARTCHAR 0026
ENCODING 38
SWIDTH 638 0
DWIDTH 23 0
BBX 20 20 2 1
BITMAP
00FFE0
00FFF0
00FFF0
00FFF0
00F1F0
00F0F0
00F0F0
01F1F0
FFFFF0
FFFFF0
FFFFF0
FFFFE0
F1F000
F0F000
F0F000
F1F000
FFFFE0
FFFFF0
FFFFF0
FFFFE0
ENDCHAR
STARTCHAR 0027
ENCODING 39
SWIDTH 194 0
DWIDTH 7 0
BBX 4 8 2 12
BITMAP
E0
F0
F0
F0
F0
F0
F0
E0
ENDCHAR
STARTCHAR 0028
ENCODING 40
SWIDTH 305 0
DWIDTH 11 0
BBX 8 36 2 -7
BITMAP
FE
FF
FF
FE
F0
F0
F0
F0
F0
F0
F0
F0
F0
F0
F0
F0
F0
F0
F0
F0
F0
F0
F0
F0
F0
F0
F0
F0
F0
F0
F0
F0
FE
FF
FF
FE
ENDCHAR
STARTCHAR 0029
ENCODING 41
SWIDTH 305 0
DWIDTH 11 0
BBX 8 36 2 -7
BITMAP
FE
FF
FF
FF
1F
0F
0F
0F
0F
0F
0F
0F
0F
0F
0F
0F
0F
0F
0F
0F
0F
0F
0F
0F
0F
0F
0F
0F
0F
0F
0F
1F
FF
FF
FF
FE
ENDCHAR
STARTCHAR 002A
ENCODING 42
SWIDTH 361 0
DWIDTH 13 0
BBX 10 10 2 10
BITMAP
6380
F7C0
FFC0
FF80
7F00
7F00
7F80
FFC0
FFC0
6380
ENDCHAR
STARTCHAR 002B
ENCODING 43
SWIDTH 416 0
DWIDTH 15 0
BBX 12 12 2 4
BITMAP
0E00
0F00
0F00
1F00
FFE0
FFF0
FFF0
FFE0
1F00
0F00
0F00
0E00
ENDCHAR
STARTCHAR 002C
ENCODING 44
SWIDTH 305 0
DWIDTH 11 0
BBX 8 8 2 0
BITMAP
0E
0F
0F
1F
FF
FF
FF
FE
ENDCHAR
STARTCHAR 002D
ENCODING 45
SWIDTH 416 0
DWIDTH 15 0
BBX 12 4 2 8
BITMAP
FFE0
FFF0
FFF0
FFE0
ENDCHAR
STARTCHAR 002E
ENCODING 46
SWIDTH 194 0
DWIDTH 7 0
BBX 4 4 2 0
BITMAP
E0
F0
F0
E0
ENDCHAR
STARTCHAR 002F
ENCODING 47
SWIDTH 611 0
DWIDTH 22 0
BBX 18 18 2 1
BITMAP
0001C0
0003C0
0007C0
000F80
001F00
003E00
007C00
00F800
01F000
03E000
07C000
0F8000
1F0000
3E0000
7C0000
F80000
F00000
E00000
ENDCHAR
STARTCHAR 0030
ENCODING 48
SWIDTH 638 0
DWIDTH 23 0
BBX 20 20 2 1
BITMAP
FFFFE0
FFFFF0
FFFFF0
FFFFF0
F001F0
F000F0
F000F0
F000F0
F000F0
F000F0
F000F0
F000F0
F000F0
F000F0
F000F0
F001F0
FFFFF0
FFFFF0
FFFFF0
FFFFE0
ENDCHAR
STARTCHAR 0031
ENCODING 49
SWIDTH 638 0
DWIDTH 23 0
BBX 20 20 2 1
BITMAP
FFFE00
FFFF00
FFFF00
FFFF00
001F00
000F00
000F00
000F00
000F00
000F00
000F00
000F00
000F00
000F00
000F00
001F00
FFFFE0
FFFFF0
FFFFF0
FFFFE0
ENDCHAR
STARTCHAR 0032
ENCODING 50
SWIDTH 638 0
DWIDTH 23 0
BBX 20 20 2 1
BITMAP
FFFFE0
FFFFF0
FFFFF0
FFFFF0
0001F0
0000F0
0000F0
0001F0
FFFFF0
FFFFF0
FFFFF0
FFFFE0
F00000
F00000
F00000
F00000
FFFFE0
FFFFF0
FFFFF0
FFFFE0
ENDCHAR
STARTCHAR 0033
ENCODING 51
SWIDTH 638 0
DWIDTH 23 0
BBX 20 20 2 1
BITMAP
FFFFE0
FFFFF0
FFFFF0
FFFFF0
0001F0
0000F0
0000F0
0001F0
FFFFF0
FFFFF0
FFFFF0
FFFFF0
0001F0
0000F0
0000F0
0001F0
FFFFF0
FFFFF0
FFFFF0
FFFFE0
ENDCHAR
STARTCHAR 0034
ENCODING 52
SWIDTH 638 0
DWIDTH 23 0
BBX 20 24 2 -3
BITMAP
E000E0
F000F0
F000F0
F000F0
F000F0
F000F0
F000F0
F000F0
F000F0
F000F0
F000F0
F001F0
FFFFF0
FFFFF0
FFFFF0
FFFFF0
0001F0
0000F0
0000F0
0000F0
0000F0
0000F0
0000F0
0000E0
ENDCHAR
STARTCHAR 0035
ENCODING 53
SWIDTH 638 0
DWIDTH 23 0
BBX 20 20 2 1
BITMAP
FFFFE0
FFFFF0
FFFFF0
FFFFE0
F00000
F00000
F00000
F00000
FFFFE0
FFFFF0
FFFFF0
FFFFF0
0001F0
0000F0
0000F0
0001F0
FFFFF0
FFFFF0
FFFFF0
FFFFE0
ENDCHAR
STARTCHAR 0036
ENCODING 54
SWIDTH 638 0
DWIDTH 23 0
BBX 20 20 2 1
BITMAP
FFFFE0
FFFFF0
FFFFF0
FFFFE0
F00000
F00000
F00000
F00000
FFFFE0
FFFFF0
FFFFF0
FFFFF0
F001F0
F000F0
F000F0
F001F0
FFFFF0
FFFFF0
FFFFF0
FFFFE0
ENDCHAR
STARTCHAR 0037
ENCODING 55
SWIDTH 638 0
DWIDTH 23 0
BBX 20 20 2 1
BITMAP
FFFFE0
FFFFF0
FFFFF0
FFFFF0
0001F0
0000F0
0000F0
0000F0
0000F0
0000F0
0000F0
0000F0
0000F0
0000F0
0000F0
0000F0
0000F0
0000F0
0000F0
0000E0
ENDCHAR
STARTCHAR 0038
ENCODING 56
SWIDTH 638 0
DWIDTH 23 0
BBX 20 20 2 1
BITMAP
FFFFE0
FFFFF0
FFFFF0
FFFFF0
F001F0
F000F0
F000F0
F001F0
FFFFF0
FFFFF0
FFFFF0
FFFFF0
F001F0
F000F0
F000F0
F001F0
FFFFF0
FFFFF0
FFFFF0
FFFFE0
ENDCHAR
STARTCHAR 0039
ENCODING 57
SWIDTH 638 0
DWIDTH 23 0
BBX 20 20 2 1
BITMAP
FFFFE0
FFFFF0
FFFFF0
FFFFF0
F001F0
F000F0
F000F0
F001F0
FFFFF0
FFFFF0
FFFFF0
FFFFF0
0001F0
0000F0
0000F0
0001F0
FFFFF0
FFFFF0
FFFFF0
FFFFE0
ENDCHAR
STARTCHAR 003A
ENCODING 58
SWIDTH 194 0
DWIDTH 7 0
BBX 4 12 2 4
BITMAP
E0
F0
F0
E0
00
00
00
00
E0
F0
F0
E0
ENDCHAR
STARTCHAR 003B
ENCODING 59
SWIDTH 194 0
DWIDTH 7 0
BBX 4 16 2 0
BITMAP
E0
F0
F0
E0
00
00
00
00
E0
F0
F0
F0
F0
F0
F0
E0
ENDCHAR
STARTCHAR 003C
ENCODING 60
SWIDTH 361 0
DWIDTH 13 0
BBX 10 16 2 2
BITMAP
0180
03C0
07C0
0F80
1F00
3E00
7C00
F800
F800
7C00
3E00
1F00
0F80
07C0
03C0
0180
ENDCHAR
STARTCHAR 003D
ENCODING 61
SWIDTH 416 0
DWIDTH 15 0
BBX 12 12 2 4
BITMAP
FFE0
FFF0
FFF0
FFE0
0000
0000
0000
0000
FFE0
FFF0
FFF0
FFE0
ENDCHAR
STARTCHAR 003E
ENCODING 62
SWIDTH 361 0
DWIDTH 13 0
BBX 10 16 2 2
BITMAP
6000
F000
F800
FC00
7E00
3F00
1F80
0FC0
0FC0
1F80
3F00
7E00
FC00
F800
F000
6000
ENDCHAR
STARTCHAR 003F
ENCODING 63
SWIDTH 638 0
DWIDTH 23 0
BBX 20 20 2 1
BITMAP
FFFFE0
FFFFF0
FFFFF0
FFFFF0
F001F0
F000F0
F000F0
E001F0
00FFF0
00FFF0
00FFF0
00FFE0
000000
000000
000000
000000
00E000
00F000
00F000
00E000
ENDCHAR
STARTCHAR 0040
ENCODING 64
SWIDTH 638 0
DWIDTH 23 0
BBX 20 20 2 1
BITMAP
FFFFE0
FFFFF0
FFFFF0
FFFFF0
F1F1F0
F0F0F0
F0F0F0
F0F1F0
F0FFF0
F0FFF0
F0FFF0
F0FFE0
F00000
F00000
F00000
F00000
FFFFE0
FFFFF0
FFFFF0
FFFFE0
ENDCHAR
STARTCHAR 0041
ENCODING 65
SWIDTH 638 0
DWIDTH 23 0
BBX 20 20 2 1
BITMAP
FFFFE0
FFFFF0
FFFFF0
FFFFF0
F001F0
F000F0
F000F0
F001F0
FFFFF0
FFFFF0
FFFFF0
FFFFF0
F001F0
F000F0
F000F0
F000F0
F000F0
F000F0
F000F0
E000E0
ENDCHAR
STARTCHAR 0042
ENCODING 66
SWIDTH 638 0
DWIDTH 23 0
BBX 20 20 2 1
BITMAP
FFFFE0
FFFFF0
FFFFF0
FFFFF0
F001F0
F000F0
F000F0
F001F0
F0FFF0
F0FFF0
F0FFF0
F0FFF0
F001F0
F000F0
F000F0
F001F0
FFFFF0
FFFFF0
FFFFF0
FFFFE0
ENDCHAR
STARTCHAR 0043
ENCODING 67
SWIDTH 638 0
DWIDTH 23 0
BBX 20 20 2 1
BITMAP
FFFFE0
FFFFF0
FFFFF0
FFFFE0
F00000
F00000
F00000
F00000
F00000
F00000
F00000
F00000
F00000
F00000
F00000
F00000
FFFFE0
FFFFF0
FFFFF0
FFFFE0
ENDCHAR
STARTCHAR 0044
ENCODING 68
SWIDTH 638 0
DWIDTH 23 0
BBX 20 20 2 1
BITMAP
0000E0
0000F0
0000F0
0001F0
FFFFF0
FFFFF0
FFFFF0
FFFFF0
F001F0
F000F0
F000F0
F000F0
F000F0
F000F0
F000F0
F001F0
FFFFF0
FFFFF0
FFFFF0
FFFFE0
ENDCHAR
STARTCHAR 0045
ENCODING 69
SWIDTH 638 0
DWIDTH 23 0
BBX 20 20 2 1
BITMAP
FFFFE0
FFFFF0
FFFFF0
FFFFE0
F00000
F00000
F00000
F00000
FFFFE0
FFFFF0
FFFFF0
FFFFE0
F00000
F00000
F00000
F00000
FFFFE0
FFFFF0
FFFFF0
FFFFE0
ENDCHAR
STARTCHAR 0046
ENCODING 70
SWIDTH 638 0
DWIDTH 23 0
BBX 20 20 2 1
BITMAP
FFFFE0
FFFFF0
FFFFF0
FFFFE0
F00000
F00000
F00000
F00000
FFFFE0
FFFFF0
FFFFF0
FFFFE0
F00000
F00000
F00000
F00000
F00000
F00000
F00000
E00000
ENDCHAR
STARTCHAR 0047
ENCODING 71
SWIDTH 638 0
DWIDTH 23 0
BBX 20 20 2 1
BITMAP
FFFFE0
FFFFF0
FFFFF0
FFFFE0
F00000
F00000
F00000
F00000
F0FFE0
F0FFF0
F0FFF0
F0FFF0
F001F0
F000F0
F000F0
F001F0
FFFFF0
FFFFF0
FFFFF0
FFFFE0
ENDCHAR
STARTCHAR 0048
ENCODING 72
SWIDTH 638 0
DWIDTH 23 0
BBX 20 20 2 1
BITMAP
E000E0
F000F0
F000F0
F000F0
F000F0
F000F0
F000F0
F001F0
FFFFF0
FFFFF0
FFFFF0
FFFFF0
F001F0
F000F0
F000F0
F000F0
F000F0
F000F0
F000F0
E000E0
ENDCHAR
STARTCHAR 0049
ENCODING 73
SWIDTH 638 0
DWIDTH 23 0
BBX 20 20 2 1
BITMAP
FFFFE0
FFFFF0
FFFFF0
FFFFE0
01F000
00F000
00F000
00F000
00F000
00F000
00F000
00F000
00F000
00F000
00F000
01F000
FFFFE0
FFFFF0
FFFFF0
FFFFE0
ENDCHAR
STARTCHAR 004A
ENCODING 74
SWIDTH 638 0
DWIDTH 23 0
BBX 20 20 2 1
BITMAP
00FFE0
00FFF0
00FFF0
00FFF0
0001F0
0000F0
0000F0
0000F0
0000F0
0000F0
0000F0
0000F0
E000F0
F000F0
F000F0
F001F0
FFFFF0
FFFFF0
FFFFF0
FFFFE0
ENDCHAR
STARTCHAR 004B
ENCODING 75
SWIDTH 638 0
DWIDTH 23 0
BBX 19 20 2 1
BITMAP
E00000
F001C0
F003E0
F007E0
F00FC0
F01F80
F03F00
F07E00
F0FC00
F1F800
F3F800
F7FC00
FFFE00
FFBF00
FF1F80
FE0FC0
FC07E0
F803E0
F001C0
E00000
ENDCHAR
STARTCHAR 004C
ENCODING 76
SWIDTH 638 0
DWIDTH 23 0
BBX 20 20 2 1
BITMAP
E00000
F00000
F00000
F00000
F00000
F00000
F00000
F00000
F00000
F00000
F00000
F00000
F00000
F00000
F00000
F00000
FFFFE0
FFFFF0
FFFFF0
FFFFE0
ENDCHAR
STARTCHAR 004D
ENCODING 77
SWIDTH 638 0
DWIDTH 23 0
BBX 20 20 2 1
BITMAP
FFFFE0
FFFFF0
FFFFF0
FFFFF0
F1F1F0
F0F0F0
F0F0F0
F0F0F0
F0F0F0
F0F0F0
F0F0F0
F0F0F0
F0F0F0
F0F0F0
F0F0F0
F0F0F0
F0F0F0
F0F0F0
F0F0F0
E0E0E0
ENDCHAR
STARTCHAR 004E
ENCODING 78
SWIDTH 638 0
DWIDTH 23 0
BBX 20 20 2 1
BITMAP
E000E0
F000F0
F800F0
FC00F0
FE00F0
FF00F0
FF80F0
FFC0F0
F7E0F0
F3F0F0
F1F8F0
F0FCF0
F07FF0
F03FF0
F01FF0
F00FF0
F007F0
F003F0
F001F0
E000E0
ENDCHAR
STARTCHAR 004F
ENCODING 79
SWIDTH 638 0
DWIDTH 23 0
BBX 20 20 2 1
BITMAP
FFFFE0
FFFFF0
FFFFF0
FFFFF0
F001F0
F000F0
F000F0
F000F0
F000F0
F000F0
F000F0
F000F0
F000F0
F000F0
F000F0
F001F0
FFFFF0
FFFFF0
FFFFF0
FFFFE0
ENDCHAR
STARTCHAR 0050
ENCODING 80
SWIDTH 638 0
DWIDTH 23 0
BBX 20 20 2 1
BITMAP
FFFFE0
FFFFF0
FFFFF0
FFFFF0
F001F0
F000F0
F000F0
F000F0
F000F0
F000F0
F000F0
F001F0
FFFFF0
FFFFF0
FFFFF0
FFFFE0
F00000
F00000
F00000
E00000
ENDCHAR
STARTCHAR 0051
ENCODING 81
SWIDTH 638 0
DWIDTH 23 0
BBX 20 20 2 1
BITMAP
FFFFE0
FFFFF0
FFFFF0
FFFFF0
F001F0
F000F0
F000F0
F000F0
F000F0
F000F0
F000F0
F000F0
F0E0F0
F0F0F0
F0F0F0
F1F1F0
FFFFF0
FFFFF0
FFFFF0
FFFFE0
ENDCHAR
STARTCHAR 0052
ENCODING 82
SWIDTH 638 0
DWIDTH 23 0
BBX 20 20 2 1
BITMAP
FFFFE0
FFFFF0
FFFFF0
FFFFF0
F001F0
F000F0
F000F0
F000F0
F000F0
F000F0
F000F0
F001F0
FFFFF0
FFFFF0
FFFFF0
FFFFE0
F1F000
F0F000
F0F000
E0E000
ENDCHAR
STARTCHAR 0053
ENCODING 83
SWIDTH 638 0
DWIDTH 23 0
BBX 20 20 2 1
BITMAP
FFFFE0
FFFFF0
FFFFF0
FFFFE0
F00000
F00000
F00000
F00000
FFFFE0
FFFFF0
FFFFF0
FFFFF0
0001F0
0000F0
0000F0
0001F0
FFFFF0
FFFFF0
FFFFF0
FFFFE0
ENDCHAR
STARTCHAR 0054
ENCODING 84
SWIDTH 638 0
DWIDTH 23 0
BBX 20 20 2 1
BITMAP
FFFFE0
FFFFF0
FFFFF0
FFFFE0
01F000
00F000
00F000
00F000
00F000
00F000
00F000
00F000
00F000
00F000
00F000
00F000
00F000
00F000
00F000
00E000
ENDCHAR
STARTCHAR 0055
ENCODING 85
SWIDTH 638 0
DWIDTH 23 0
BBX 20 20 2 1
BITMAP
E000E0
F000F0
F000F0
F000F0
F000F0
F000F0
F000F0
F000F0
F000F0
F000F0
F000F0
F000F0
F000F0
F000F0
F000F0
F001F0
FFFFF0
FFFFF0
FFFFF0
FFFFE0
ENDCHAR
STARTCHAR 0056
ENCODING 86
SWIDTH 611 0
DWIDTH 22 0
BBX 19 18 2 1
BITMAP
E001C0
F003E0
F003C0
7807C0
7C0780
3C0F80
3E0F00
1E1F00
1F1E00
0F3C00
0FFC00
07F800
07F800
03F000
01F000
01E000
00E000
00C000
ENDCHAR
STARTCHAR 0057
ENCODING 87
SWIDTH 638 0
DWIDTH 23 0
BBX 20 20 2 1
BITMAP
E0E0E0
F0F0F0
F0F0F0
F0F0F0
F0F0F0
F0F0F0
F0F0F0
F0F0F0
F0F0F0
F0F0F0
F0F0F0
F0F0F0
F0F0F0
F0F0F0
F0F0F0
F1F1F0
FFFFF0
FFFFF0
FFFFF0
FFFFE0
ENDCHAR
STARTCHAR 0058
ENCODING 88
SWIDTH 611 0
DWIDTH 22 0
BBX 18 18 2 1
BITMAP
E001C0
F003C0
F807C0
7C0F80
3E1F00
1FFE00
0FFC00
07F800
03F800
03F800
07F800
0FFC00
1FFE00
3E1F00
7C0F80
F807C0
F003C0
E001C0
ENDCHAR
STARTCHAR 0059
ENCODING 89
SWIDTH 638 0
DWIDTH 23 0
BBX 20 20 2 1
BITMAP
E000E0
F000F0
F000F0
F000F0
F000F0
F000F0
F000F0
F000F0
F000F0
F000F0
F000F0
F001F0
FFFFF0
FFFFF0
FFFFF0
FFFFE0
01F000
00F000
00F000
00E000
ENDCHAR
STARTCHAR 005A
ENCODING 90
SWIDTH 638 0
DWIDTH 23 0
BBX 20 20 2 1
BITMAP
FFFFE0
FFFFF0
FFFFF0
FFFFE0
000FC0
001F80
003F00
007E00
00FC00
01F800
03F000
07E000
0FC000
1F8000
3F0000
7E0000
FFFFE0
FFFFF0
FFFFF0
FFFFE0
ENDCHAR
STARTCHAR 005B
ENCODING 91
SWIDTH 305 0
DWIDTH 11 0
BBX 8 36 2 -7
BITMAP
FE
FF
FF
FE
F0
F0
F0
F0
F0
F0
F0
F0
F0
F0
F0
F0
F0
F0
F0
F0
F0
F0
F0
F0
F0
F0
F0
F0
F0
F0
F0
F0
FE
FF
FF
FE
ENDCHAR
STARTCHAR 005C
ENCODING 92
SWIDTH 611 0
DWIDTH 22 0
BBX 18 18 2 1
BITMAP
E00000
F00000
F80000
7C0000
3E0000
1F0000
0F8000
07C000
03E000
01F000
00F800
007C00
003E00
001F00
000F80
0007C0
0003C0
0001C0
ENDCHAR
STARTCHAR 005D
ENCODING 93
SWIDTH 305 0
DWIDTH 11 0
BBX 8 36 2 -7
BITMAP
FE
FF
FF
FF
1F
0F
0F
0F
0F
0F
0F
0F
0F
0F
0F
0F
0F
0F
0F
0F
0F
0F
0F
0F
0F
0F
0F
0F
0F
0F
0F
1F
FF
FF
FF
FE
ENDCHAR
STARTCHAR 005E
ENCODING 94
SWIDTH 361 0
DWIDTH 13 0
BBX 10 7 2 13
BITMAP
0C00
1E00
3F00
7F80
FFC0
FFC0
6380
ENDCHAR
STARTCHAR 005F
ENCODING 95
SWIDTH 638 0
DWIDTH 23 0
BBX 20 4 2 -8
BITMAP
FFFFE0
FFFFF0
FFFFF0
FFFFE0
ENDCHAR
STARTCHAR 0060
ENCODING 96
SWIDTH 277 0
DWIDTH 10 0
BBX 6 7 2 14
BITMAP
60
F0
F8
FC
7C
3C
18
ENDCHAR
STARTCHAR 0061
ENCODING 97
SWIDTH 638 0
DWIDTH 23 0
BBX 20 20 2 1
BITMAP
FFFFE0
FFFFF0
FFFFF0
FFFFF0
0001F0
0000F0
0000F0
0001F0
FFFFF0
FFFFF0
FFFFF0
FFFFF0
F001F0
F000F0
F000F0
F001F0
FFFFF0
FFFFF0
FFFFF0
FFFFE0
ENDCHAR
STARTCHAR 0062
ENCODING 98
SWIDTH 638 0
DWIDTH 23 0
BBX 20 28 2 1
BITMAP
E00000
F00000
F00000
F00000
F00000
F00000
F00000
F00000
FFFFE0
FFFFF0
FFFFF0
FFFFF0
F001F0
F000F0
F000F0
F000F0
F000F0
F000F0
F000F0
F000F0
F000F0
F000F0
F000F0
F001F0
FFFFF0
FFFFF0
FFFFF0
FFFFE0
ENDCHAR
STARTCHAR 0063
ENCODING 99
SWIDTH 638 0
DWIDTH 23 0
BBX 20 20 2 1
BITMAP
FFFFE0
FFFFF0
FFFFF0
FFFFE0
F00000
F00000
F00000
F00000
F00000
F00000
F00000
F00000
F00000
F00000
F00000
F00000
FFFFE0
FFFFF0
FFFFF0
FFFFE0
ENDCHAR
STARTCHAR 0064
ENCODING 100
SWIDTH 638 0
DWIDTH 23 0
BBX 20 28 2 1
BITMAP
0000E0
0000F0
0000F0
0000F0
0000F0
0000F0
0000F0
0001F0
FFFFF0
FFFFF0
FFFFF0
FFFFF0
F001F0
F000F0
F000F0
F000F0
F000F0
F000F0
F000F0
F000F0
F000F0
F000F0
F000F0
F001F0
FFFFF0
FFFFF0
FFFFF0
FFFFE0
ENDCHAR
STARTCHAR 0065
ENCODING 101
SWIDTH 638 0
DWIDTH 23 0
BBX 20 20 2 1
BITMAP
FFFFE0
FFFFF0
FFFFF0
FFFFF0
F001F0
F000F0
F000F0
F001F0
FFFFF0
FFFFF0
FFFFF0
FFFFE0
F00000
F00000
F00000
F00000
FFFFE0
FFFFF0
FFFFF0
FFFFE0
ENDCHAR
STARTCHAR 0066
ENCODING 102
SWIDTH 638 0
DWIDTH 23 0
BBX 20 20 2 1
BITMAP
0FFFE0
0FFFF0
0FFFF0
0FFFE0
0F0000
0F0000
0F0000
1F0000
FFFFE0
FFFFF0
FFFFF0
FFFFE0
1F0000
0F0000
0F0000
0F0000
0F0000
0F0000
0F0000
0E0000
ENDCHAR
STARTCHAR 0067
ENCODING 103
SWIDTH 638 0
DWIDTH 23 0
BBX 20 28 2 -7
BITMAP
FFFFE0
FFFFF0
FFFFF0
FFFFF0
F001F0
F000F0
F000F0
F000F0
F000F0
F000F0
F000F0
F000F0
F000F0
F000F0
F000F0
F001F0
FFFFF0
FFFFF0
FFFFF0
FFFFE0
001F00
000F00
000F00
001F00
00FF00
00FF00
00FF00
00FE00
ENDCHAR
STARTCHAR 0068
ENCODING 104
SWIDTH 638 0
DWIDTH 23 0
BBX 20 28 2 1
BITMAP
E00000
F00000
F00000
F00000
F00000
F00000
F00000
F00000
FFFFE0
FFFFF0
FFFFF0
FFFFF0
F001F0
F000F0
F000F0
F000F0
F000F0
F000F0
F000F0
F000F0
F000F0
F000F0
F000F0
F000F0
F000F0
F000F0
F000F0
E000E0
ENDCHAR
STARTCHAR 0069
ENCODING 105
SWIDTH 194 0
DWIDTH 7 0
BBX 4 20 2 1
BITMAP
E0
F0
F0
F0
F0
F0
F0
F0
F0
F0
F0
F0
F0
F0
F0
F0
F0
F0
F0
E0
ENDCHAR
STARTCHAR 006A
ENCODING 106
SWIDTH 638 0
DWIDTH 23 0
BBX 20 20 2 1
BITMAP
0000E0
0000F0
0000F0
0000F0
0000F0
0000F0
0000F0
0000F0
0000F0
0000F0
0000F0
0000F0
E000F0
F000F0
F000F0
F001F0
FFFFF0
FFFFF0
FFFFF0
FFFFE0
ENDCHAR
STARTCHAR 006B
ENCODING 107
SWIDTH 638 0
DWIDTH 23 0
BBX 19 20 2 1
BITMAP
E00000
F001C0
F003E0
F007E0
F00FC0
F01F80
F03F00
F07E00
F0FC00
F1F800
F3F800
F7FC00
FFFE00
FFBF00
FF1F80
FE0FC0
FC07E0
F803E0
F001C0
E00000
ENDCHAR
STARTCHAR 006C
ENCODING 108
SWIDTH 638 0
DWIDTH 23 0
BBX 20 20 2 1
BITMAP
E00000
F00000
F00000
F00000
F00000
F00000
F00000
F00000
F00000
F00000
F00000
F00000
F00000
F00000
F00000
F00000
FFFFE0
FFFFF0
FFFFF0
FFFFE0
ENDCHAR
STARTCHAR 006D
ENCODING 109
SWIDTH 638 0
DWIDTH 23 0
BBX 20 20 2 1
BITMAP
FFFFE0
FFFFF0
FFFFF0
FFFFF0
F1F1F0
F0F0F0
F0F0F0
F0F0F0
F0F0F0
F0F0F0
F0F0F0
F0F0F0
F0F0F0
F0F0F0
F0F0F0
F0F0F0
F0F0F0
F0F0F0
F0F0F0
E0E0E0
ENDCHAR
STARTCHAR 006E
ENCODING 110
SWIDTH 638 0
DWIDTH 23 0
BBX 20 20 2 1
BITMAP
FFFFE0
FFFFF0
FFFFF0
FFFFF0
F001F0
F000F0
F000F0
F000F0
F000F0
F000F0
F000F0
F000F0
F000F0
F000F0
F000F0
F000F0
F000F0
F000F0
F000F0
E000E0
ENDCHAR
STARTCHAR 006F
ENCODING 111
SWIDTH 638 0
DWIDTH 23 0
BBX 20 20 2 1
BITMAP
FFFFE0
FFFFF0
FFFFF0
FFFFF0
F001F0
F000F0
F000F0
F000F0
F000F0
F000F0
F000F0
F000F0
F000F0
F000F0
F000F0
F001F0
FFFFF0
FFFFF0
FFFFF0
FFFFE0
ENDCHAR
STARTCHAR 0070
ENCODING 112
SWIDTH 638 0
DWIDTH 23 0
BBX 20 28 2 -7
BITMAP
FFFFE0
FFFFF0
FFFFF0
FFFFF0
F001F0
F000F0
F000F0
F000F0
F000F0
F000F0
F000F0
F000F0
F000F0
F000F0
F000F0
F001F0
FFFFF0
FFFFF0
FFFFF0
FFFFE0
F00000
F00000
F00000
F00000
F00000
F00000
F00000
E00000
ENDCHAR
STARTCHAR 0071
ENCODING 113
SWIDTH 638 0
DWIDTH 23 0
BBX 20 28 2 -7
BITMAP
FFFFE0
FFFFF0
FFFFF0
FFFFF0
F001F0
F000F0
F000F0
F000F0
F000F0
F000F0
F000F0
F000F0
F000F0
F000F0
F000F0
F001F0
FFFFF0
FFFFF0
FFFFF0
FFFFE0
01F000
00F000
00F000
00F000
00FE00
00FF00
00FF00
00FE00
ENDCHAR
STARTCHAR 0072
ENCODING 114
SWIDTH 638 0
DWIDTH 23 0
BBX 20 20 2 1
BITMAP
FFFFE0
FFFFF0
FFFFF0
FFFFE0
F00000
F00000
F00000
F00000
F00000
F00000
F00000
F00000
F00000
F00000
F00000
F00000
F00000
F00000
F00000
E00000
ENDCHAR
STARTCHAR 0073
ENCODING 115
SWIDTH 638 0
DWIDTH 23 0
BBX 20 20 2 1
BITMAP
FFFFE0
FFFFF0
FFFFF0
FFFFE0
F00000
F00000
F00000
F00000
FFFFE0
FFFFF0
FFFFF0
FFFFF0
0001F0
0000F0
0000F0
0001F0
FFFFF0
FFFFF0
FFFFF0
FFFFE0
ENDCHAR
STARTCHAR 0074
ENCODING 116
SWIDTH 638 0
DWIDTH 23 0
BBX 20 20 2 1
BITMAP
FFFFE0
FFFFF0
FFFFF0
FFFFE0
01F000
00F000
00F000
00F000
00F000
00F000
00F000
00F000
00F000
00F000
00F000
00F000
00F000
00F000
00F000
00E000
ENDCHAR
STARTCHAR 0075
ENCODING 117
SWIDTH 638 0
DWIDTH 23 0
BBX 20 20 2 1
BITMAP
E000E0
F000F0
F000F0
F000F0
F000F0
F000F0
F000F0
F000F0
F000F0
F000F0
F000F0
F000F0
F000F0
F000F0
F000F0
F001F0
FFFFF0
FFFFF0
FFFFF0
FFFFE0
ENDCHAR
STARTCHAR 0076
ENCODING 118
SWIDTH 611 0
DWIDTH 22 0
BBX 19 18 2 1
BITMAP
E001C0
F003E0
F003C0
7807C0
7C0780
3C0F80
3E0F00
1E1F00
1F1E00
0F3C00
0FFC00
07F800
07F800
03F000
01F000
01E000
00E000
00C000
ENDCHAR
STARTCHAR 0077
ENCODING 119
SWIDTH 638 0
DWIDTH 23 0
BBX 20 20 2 1
BITMAP
E0E0E0
F0F0F0
F0F0F0
F0F0F0
F0F0F0
F0F0F0
F0F0F0
F0F0F0
F0F0F0
F0F0F0
F0F0F0
F0F0F0
F0F0F0
F0F0F0
F0F0F0
F1F1F0
FFFFF0
FFFFF0
FFFFF0
FFFFE0
ENDCHAR
STARTCHAR 0078
ENCODING 120
SWIDTH 611 0
DWIDTH 22 0
BBX 18 18 2 1
BITMAP
E001C0
F003C0
F807C0
7C0F80
3E1F00
1FFE00
0FFC00
07F800
03F800
03F800
07F800
0FFC00
1FFE00
3E1F00
7C0F80
F807C0
F003C0
E001C0
ENDCHAR
STARTCHAR 0079
ENCODING 121
SWIDTH 638 0
DWIDTH 23 0
BBX 20 28 2 -7
BITMAP
E000E0
F000F0
F000F0
F000F0
F000F0
F000F0
F000F0
F000F0
F000F0
F000F0
F000F0
F000F0
F000F0
F000F0
F000F0
F001F0
FFFFF0
FFFFF0
FFFFF0
FFFFE0
01F000
00F000
00F000
00F000
00F000
00F000
00F000
00E000
ENDCHAR
STARTCHAR 007A
ENCODING 122
SWIDTH 638 0
DWIDTH 23 0
BBX 20 20 2 1
BITMAP
FFFFE0
FFFFF0
FFFFF0
FFFFE0
000FC0
001F80
003F00
007E00
00FC00
01F800
03F000
07E000
0FC000
1F8000
3F0000
7E0000
FFFFE0
FFFFF0
FFFFF0
FFFFE0
ENDCHAR
STARTCHAR 007B
ENCODING 123
SWIDTH 416 0
DWIDTH 15 0
BBX 12 36 2 -7
BITMAP
0FE0
0FF0
0FF0
0FE0
0F00
0F00
0F00
0F00
0F00
0F00
0F00
1F00
FF00
FF00
FF00
FE00
F000
F000
F000
F000
FE00
FF00
FF00
FF00
1F00
0F00
0F00
0F00
0F00
0F00
0F00
0F00
0FE0
0FF0
0FF0
0FE0
ENDCHAR
STARTCHAR 007C
ENCODING 124
SWIDTH 194 0
DWIDTH 7 0
BBX 4 36 2 -7
BITMAP
E0
F0
F0
F0
F0
F0
F0
F0
F0
F0
F0
F0
F0
F0
F0
F0
F0
F0
F0
F0
F0
F0
F0
F0
F0
F0
F0
F0
F0
F0
F0
F0
F0
F0
F0
E0
ENDCHAR
STARTCHAR 007D
ENCODING 125
SWIDTH 416 0
DWIDTH 15 0
BBX 12 36 2 -7
BITMAP
FE00
FF00
FF00
FF00
1F00
0F00
0F00
0F00
0F00
0F00
0F00
0F00
0FE0
0FF0
0FF0
0FF0
01F0
00F0
00F0
01F0
0FF0
0FF0
0FF0
0FE0
0F00
0F00
0F00
0F00
0F00
0F00
0F00
1F00
FF00
FF00
FF00
FE00
ENDCHAR
STARTCHAR 007E
ENCODING 126
SWIDTH 583 0
DWIDTH 21 0
BBX 17 8 2 6
BITMAP
070700
0F8F80
1FDF80
3FFF00
7FFE00
FDFC00
F0F800
E07000
ENDCHAR
STARTCHAR 00A0
ENCODING 160
SWIDTH 55 0
DWIDTH 2 0
BBX 0 0 0 0
BITMAP
ENDCHAR
STARTCHAR 00A1
ENCODING 161
SWIDTH 194 0
DWIDTH 7 0
BBX 4 20 2 1
BITMAP
E0
F0
F0
E0
00
00
00
00
E0
F0
F0
F0
F0
F0
F0
F0
F0
F0
F0
E0
ENDCHAR
STARTCHAR 00A2
ENCODING 162
SWIDTH 527 0
DWIDTH 19 0
BBX 16 20 2 1
BITMAP
00E0
00F0
00F0
01F0
FFFE
FFFF
FFFF
FFFE
F000
F000
F000
F000
FFFE
FFFF
FFFF
FFFE
01F0
00F0
00F0
00E0
ENDCHAR
STARTCHAR 00A3
ENCODING 163
SWIDTH 638 0
DWIDTH 23 0
BBX 20 20 2 1
BITMAP
0FFE00
0FFF00
0FFF00
0FFE00
0F0000
0F0000
0F0000
1F0000
FFE000
FFF000
FFF000
FFE000
1F0000
0F0000
0F0000
1F0000
FFFFE0
FFFFF0
FFFFF0
FFFFE0
ENDCHAR
STARTCHAR 00A4
ENCODING 164
SWIDTH 611 0
DWIDTH 22 0
BBX 19 19 2 1
BITMAP
600180
FFFFC0
FFFFC0
FFFFC0
7FFF80
7C0F80
780780
780780
780780
780780
780780
780780
780780
7FFF80
7FFF80
FFFFC0
FFFFE0
F003C0
000080
ENDCHAR
STARTCHAR 00A5
ENCODING 165
SWIDTH 638 0
DWIDTH 23 0
BBX 20 20 2 1
BITMAP
E000E0
F000F0
F000F0
F001F0
FFFFF0
FFFFF0
FFFFF0
FFFFE0
01F000
00F000
00F000
01F000
0FFE00
0FFF00
0FFF00
0FFE00
01F000
00F000
00F000
00E000
ENDCHAR
STARTCHAR 00A8
ENCODING 168
SWIDTH 416 0
DWIDTH 15 0
BBX 12 4 2 25
BITMAP
E0E0
F0F0
F0F0
E0E0
ENDCHAR
STARTCHAR 00A9
ENCODING 169
SWIDTH 416 0
DWIDTH 15 0
BBX 12 12 2 8
BITMAP
FFE0
C070
8030
BFB0
B030
B030
B030
B030
BFB0
8030
C070
FFE0
ENDCHAR
STARTCHAR 00AB
ENCODING 171
SWIDTH 500 0
DWIDTH 18 0
BBX 14 10 2 5
BITMAP
0C18
1E3C
3E7C
7CFC
F9F8
F9F8
7CFC
3E7C
1E3C
0C18
ENDCHAR
STARTCHAR 00AC
ENCODING 172
SWIDTH 416 0
DWIDTH 15 0
BBX 12 8 2 6
BITMAP
FFE0
FFF0
FFF0
FFF0
01F0
00F0
00F0
00E0
ENDCHAR
STARTCHAR 00AE
ENCODING 174
SWIDTH 416 0
DWIDTH 15 0
BBX 12 12 2 8
BITMAP
FFE0
C070
8030
BFB0
B030
B030
B030
B030
B030
8030
C070
FFE0
ENDCHAR
STARTCHAR 00B0
ENCODING 176
SWIDTH 416 0
DWIDTH 15 0
BBX 12 12 2 8
BITMAP
FFE0
FFF0
FFF0
FFF0
F1F0
F0F0
F0F0
F1F0
FFF0
FFF0
FFF0
FFE0
ENDCHAR
STARTCHAR 00B1
ENCODING 177
SWIDTH 416 0
DWIDTH 15 0
BBX 12 18 2 2
BITMAP
0E00
0F00
0F00
1F00
FFE0
FFF0
FFF0
FFE0
1F00
0F00
0F00
0E00
0000
0000
FFE0
FFF0
FFF0
FFE0
ENDCHAR
STARTCHAR 00B4
ENCODING 180
SWIDTH 277 0
DWIDTH 10 0
BBX 6 7 2 23
BITMAP
60
F0
F8
FC
7C
3C
18
ENDCHAR
STARTCHAR 00B5
ENCODING 181
SWIDTH 638 0
DWIDTH 23 0
BBX 20 24 2 -3
BITMAP
E00E00
F00F00
F00F00
F00F00
F00F00
F00F00
F00F00
F00F00
F00F00
F00F00
F00F00
F00F00
F00F00
F00F00
F00F00
F01F00
FFFFE0
FFFFF0
FFFFF0
FFFFE0
F00000
F00000
F00000
E00000
ENDCHAR
STARTCHAR 00B7
ENCODING 183
SWIDTH 194 0
DWIDTH 7 0
BBX 4 4 2 7
BITMAP
E0
F0
F0
E0
ENDCHAR
STARTCHAR 00BB
ENCODING 187
SWIDTH 500 0
DWIDTH 18 0
BBX 14 10 2 5
BITMAP
60C0
F1E0
F9F0
FCF8
7E7C
7E7C
FCF8
F9F0
F1E0
60C0
ENDCHAR
STARTCHAR 00BF
ENCODING 191
SWIDTH 638 0
DWIDTH 23 0
BBX 20 20 2 1
BITMAP
00E000
00F000
00F000
00E000
000000
000000
000000
000000
FFE000
FFF000
FFF000
FFE000
F000E0
F000F0
F000F0
F001F0
FFFFF0
FFFFF0
FFFFF0
FFFFE0
ENDCHAR
STARTCHAR 00C0
ENCODING 192
SWIDTH 638 0
DWIDTH 23 0
BBX 20 31 2 0
BITMAP
008000
01C000
03E000
01F000
00F800
007800
003000
000000
000000
000000
000000
FFFFE0
FFFFF0
FFFFF0
FFFFF0
F001F0
F000F0
F000F0
F001F0
FFFFF0
FFFFF0
FFFFF0
FFFFF0
F001F0
F000F0
F000F0
F000F0
F000F0
F000F0
F000F0
E000E0
ENDCHAR
STARTCHAR 00C1
ENCODING 193
SWIDTH 638 0
DWIDTH 23 0
BBX 20 31 2 0
BITMAP
002000
007800
00F800
01F000
03E000
03C000
018000
000000
000000
000000
000000
FFFFE0
FFFFF0
FFFFF0
FFFFF0
F001F0
F000F0
F000F0
F001F0
FFFFF0
FFFFF0
FFFFF0
FFFFF0
F001F0
F000F0
F000F0
F000F0
F000F0
F000F0
F000F0
E000E0
ENDCHAR
STARTCHAR 00C2
ENCODING 194
SWIDTH 638 0
DWIDTH 23 0
BBX 20 31 2 1
BITMAP
00E000
01F000
03F800
07FC00
07FE00
07BC00
031800
000000
000000
000000
000000
FFFFE0
FFFFF0
FFFFF0
FFFFF0
F001F0
F000F0
F000F0
F001F0
FFFFF0
FFFFF0
FFFFF0
FFFFF0
F001F0
F000F0
F000F0
F000F0
F000F0
F000F0
F000F0
E000E0
ENDCHAR
STARTCHAR 00C3
ENCODING 195
SWIDTH 638 0
DWIDTH 23 0
BBX 20 31 2 0
BITMAP
018400
03CE00
07FF00
0FFE00
1FFC00
0F7800
063000
000000
000000
000000
000000
FFFFE0
FFFFF0
FFFFF0
FFFFF0
F001F0
F000F0
F000F0
F001F0
FFFFF0
FFFFF0
FFFFF0
FFFFF0
F001F0
F000F0
F000F0
F000F0
F000F0
F000F0
F000F0
E000E0
ENDCHAR
STARTCHAR 00C4
ENCODING 196
SWIDTH 638 0
DWIDTH 23 0
BBX 20 28 2 1
BITMAP
0E0E00
0F0F00
0F0F00
0E0E00
000000
000000
000000
000000
FFFFE0
FFFFF0
FFFFF0
FFFFF0
F001F0
F000F0
F000F0
F001F0
FFFFF0
FFFFF0
FFFFF0
FFFFF0
F001F0
F000F0
F000F0
F000F0
F000F0
F000F0
F000F0
E000E0
ENDCHAR
STARTCHAR 00C5
ENCODING 197
SWIDTH 638 0
DWIDTH 23 0
BBX 20 36 2 0
BITMAP
0FFE00
0FFF00
0FFF00
0FFF00
0F1F00
0F0F00
0F0F00
0F1F00
0FFF00
0FFF00
0FFF00
0FFE00
000000
000000
000000
000000
FFFFE0
FFFFF0
FFFFF0
FFFFF0
F001F0
F000F0
F000F0
F001F0
FFFFF0
FFFFF0
FFFFF0
FFFFF0
F001F0
F000F0
F000F0
F000F0
F000F0
F000F0
F000F0
E000E0
ENDCHAR
STARTCHAR 00C6
ENCODING 198
SWIDTH 638 0
DWIDTH 23 0
BBX 20 20 2 1
BITMAP
FFFFE0
FFFFF0
FFFFF0
FFFFE0
F1F000
F0F000
F0F000
F1F000
FFFFE0
FFFFF0
FFFFF0
FFFFE0
F1F000
F0F000
F0F000
F0F000
F0FFE0
F0FFF0
F0FFF0
E0FFE0
ENDCHAR
STARTCHAR 00C7
ENCODING 199
SWIDTH 638 0
DWIDTH 23 0
BBX 20 28 2 -7
BITMAP
FFFFE0
FFFFF0
FFFFF0
FFFFE0
F00000
F00000
F00000
F00000
F00000
F00000
F00000
F00000
F00000
F00000
F00000
F00000
FFFFE0
FFFFF0
FFFFF0
FFFFE0
001F00
000F00
000F00
001F00
00FF00
00FF00
00FF00
00FE00
ENDCHAR
STARTCHAR 00C8
ENCODING 200
SWIDTH 638 0
DWIDTH 23 0
BBX 20 31 2 0
BITMAP
008000
01C000
03E000
01F000
00F800
007800
003000
000000
000000
000000
000000
FFFFE0
FFFFF0
FFFFF0
FFFFE0
F00000
F00000
F00000
F00000
FFFFE0
FFFFF0
FFFFF0
FFFFE0
F00000
F00000
F00000
F00000
FFFFE0
FFFFF0
FFFFF0
FFFFE0
ENDCHAR
STARTCHAR 00C9
ENCODING 201
SWIDTH 638 0
DWIDTH 23 0
BBX 20 31 2 0
BITMAP
002000
007800
00F800
01F000
03E000
03C000
018000
000000
000000
000000
000000
FFFFE0
FFFFF0
FFFFF0
FFFFE0
F00000
F00000
F00000
F00000
FFFFE0
FFFFF0
FFFFF0
FFFFE0
F00000
F00000
F00000
F00000
FFFFE0
FFFFF0
FFFFF0
FFFFE0
ENDCHAR
STARTCHAR 00CA
ENCODING 202
SWIDTH 638 0
DWIDTH 23 0
BBX 20 31 2 1
BITMAP
00E000
01F000
03F800
07FC00
07FE00
07BC00
031800
000000
000000
000000
000000
FFFFE0
FFFFF0
FFFFF0
FFFFE0
F00000
F00000
F00000
F00000
FFFFE0
FFFFF0
FFFFF0
FFFFE0
F00000
F00000
F00000
F00000
FFFFE0
FFFFF0
FFFFF0
FFFFE0
ENDCHAR
STARTCHAR 00CB
ENCODING 203
SWIDTH 638 0
DWIDTH 23 0
BBX 20 28 2 1
BITMAP
0E0E00
0F0F00
0F0F00
0E0E00
000000
000000
000000
000000
FFFFE0
FFFFF0
FFFFF0
FFFFE0
F00000
F00000
F00000
F00000
FFFFE0
FFFFF0
FFFFF0
FFFFE0
F00000
F00000
F00000
F00000
FFFFE0
FFFFF0
FFFFF0
FFFFE0
ENDCHAR
STARTCHAR 00CC
ENCODING 204
SWIDTH 638 0
DWIDTH 23 0
BBX 20 31 2 0
BITMAP
008000
01C000
03E000
01F000
00F800
007800
003000
000000
000000
000000
000000
FFFFE0
FFFFF0
FFFFF0
FFFFE0
01F000
00F000
00F000
00F000
00F000
00F000
00F000
00F000
00F000
00F000
00F000
01F000
FFFFE0
FFFFF0
FFFFF0
FFFFE0
ENDCHAR
STARTCHAR 00CD
ENCODING 205
SWIDTH 638 0
DWIDTH 23 0
BBX 20 31 2 0
BITMAP
002000
007800
00F800
01F000
03E000
03C000
018000
000000
000000
000000
000000
FFFFE0
FFFFF0
FFFFF0
FFFFE0
01F000
00F000
00F000
00F000
00F000
00F000
00F000
00F000
00F000
00F000
00F000
01F000
FFFFE0
FFFFF0
FFFFF0
FFFFE0
ENDCHAR
STARTCHAR 00CE
ENCODING 206
SWIDTH 638 0
DWIDTH 23 0
BBX 20 31 2 1
BITMAP
00E000
01F000
03F800
07FC00
07FE00
07BC00
031800
000000
000000
000000
000000
FFFFE0
FFFFF0
FFFFF0
FFFFE0
01F000
00F000
00F000
00F000
00F000
00F000
00F000
00F000
00F000
00F000
00F000
01F000
FFFFE0
FFFFF0
FFFFF0
FFFFE0
ENDCHAR
STARTCHAR 00CF
ENCODING 207
SWIDTH 638 0
DWIDTH 23 0
BBX 20 28 2 1
BITMAP
0E0E00
0F0F00
0F0F00
0E0E00
000000
000000
000000
000000
FFFFE0
FFFFF0
FFFFF0
FFFFE0
01F000
00F000
00F000
00F000
00F000
00F000
00F000
00F000
00F000
00F000
00F000
01F000
FFFFE0
FFFFF0
FFFFF0
FFFFE0
ENDCHAR
STARTCHAR 00D1
ENCODING 209
SWIDTH 638 0
DWIDTH 23 0
BBX 20 31 2 0
BITMAP
018400
03CE00
07FF00
0FFE00
1FFC00
0F7800
063000
000000
000000
000000
000000
E000E0
F000F0
F800F0
FC00F0
FE00F0
FF00F0
FF80F0
FFC0F0
F7E0F0
F3F0F0
F1F8F0
F0FCF0
F07FF0
F03FF0
F01FF0
F00FF0
F007F0
F003F0
F001F0
E000E0
ENDCHAR
STARTCHAR 00D2
ENCODING 210
SWIDTH 638 0
DWIDTH 23 0
BBX 20 31 2 0
BITMAP
008000
01C000
03E000
01F000
00F800
007800
003000
000000
000000
000000
000000
FFFFE0
FFFFF0
FFFFF0
FFFFF0
F001F0
F000F0
F000F0
F000F0
F000F0
F000F0
F000F0
F000F0
F000F0
F000F0
F000F0
F001F0
FFFFF0
FFFFF0
FFFFF0
FFFFE0
ENDCHAR
STARTCHAR 00D3
ENCODING 211
SWIDTH 638 0
DWIDTH 23 0
BBX 20 31 2 0
BITMAP
002000
007800
00F800
01F000
03E000
03C000
018000
000000
000000
000000
000000
FFFFE0
FFFFF0
FFFFF0
FFFFF0
F001F0
F000F0
F000F0
F000F0
F000F0
F000F0
F000F0
F000F0
F000F0
F000F0
F000F0
F001F0
FFFFF0
FFFFF0
FFFFF0
FFFFE0
ENDCHAR
STARTCHAR 00D4
ENCODING 212
SWIDTH 638 0
DWIDTH 23 0
BBX 20 31 2 1
BITMAP
00E000
01F000
03F800
07FC00
07FE00
07BC00
031800
000000
000000
000000
000000
FFFFE0
FFFFF0
FFFFF0
FFFFF0
F001F0
F000F0
F000F0
F000F0
F000F0
F000F0
F000F0
F000F0
F000F0
F000F0
F000F0
F001F0
FFFFF0
FFFFF0
FFFFF0
FFFFE0
ENDCHAR
STARTCHAR 00D5
ENCODING 213
SWIDTH 638 0
DWIDTH 23 0
BBX 20 31 2 0
BITMAP
018400
03CE00
07FF00
0FFE00
1FFC00
0F7800
063000
000000
000000
000000
000000
FFFFE0
FFFFF0
FFFFF0
FFFFF0
F001F0
F000F0
F000F0
F000F0
F000F0
F000F0
F000F0
F000F0
F000F0
F000F0
F000F0
F001F0
FFFFF0
FFFFF0
FFFFF0
FFFFE0
ENDCHAR
STARTCHAR 00D6
ENCODING 214
SWIDTH 638 0
DWIDTH 23 0
BBX 20 28 2 1
BITMAP
0E0E00
0F0F00
0F0F00
0E0E00
000000
000000
000000
000000
FFFFE0
FFFFF0
FFFFF0
FFFFF0
F001F0
F000F0
F000F0
F000F0
F000F0
F000F0
F000F0
F000F0
F000F0
F000F0
F000F0
F001F0
FFFFF0
FFFFF0
FFFFF0
FFFFE0
ENDCHAR
STARTCHAR 00D8
ENCODING 216
SWIDTH 638 0
DWIDTH 23 0
BBX 20 20 2 1
BITMAP
FFFFE0
FFFFF0
FFFFF0
FFFFF0
FF01F0
FF00F0
FF00F0
FE00F0
F000F0
F000F0
F000F0
F001F0
F00FF0
F00FF0
F00FF0
F01FF0
FFFFF0
FFFFF0
FFFFF0
FFFFE0
ENDCHAR
STARTCHAR 00D9
ENCODING 217
SWIDTH 638 0
DWIDTH 23 0
BBX 20 31 2 0
BITMAP
008000
01C000
03E000
01F000
00F800
007800
003000
000000
000000
000000
000000
E000E0
F000F0
F000F0
F000F0
F000F0
F000F0
F000F0
F000F0
F000F0
F000F0
F000F0
F000F0
F000F0
F000F0
F000F0
F001F0
FFFFF0
FFFFF0
FFFFF0
FFFFE0
ENDCHAR
STARTCHAR 00DA
ENCODING 218
SWIDTH 638 0
DWIDTH 23 0
BBX 20 31 2 0
BITMAP
002000
007800
00F800
01F000
03E000
03C000
018000
000000
000000
000000
000000
E000E0
F000F0
F000F0
F000F0
F000F0
F000F0
F000F0
F000F0
F000F0
F000F0
F000F0
F000F0
F000F0
F000F0
F000F0
F001F0
FFFFF0
FFFFF0
FFFFF0
FFFFE0
ENDCHAR
STARTCHAR 00DB
ENCODING 219
SWIDTH 638 0
DWIDTH 23 0
BBX 20 31 2 1
BITMAP
00E000
01F000
03F800
07FC00
07FE00
07BC00
031800
000000
000000
000000
000000
E000E0
F000F0
F000F0
F000F0
F000F0
F000F0
F000F0
F000F0
F000F0
F000F0
F000F0
F000F0
F000F0
F000F0
F000F0
F001F0
FFFFF0
FFFFF0
FFFFF0
FFFFE0
ENDCHAR
STARTCHAR 00DC
ENCODING 220
SWIDTH 638 0
DWIDTH 23 0
BBX 20 28 2 1
BITMAP
0E0E00
0F0F00
0F0F00
0E0E00
000000
000000
000000
000000
E000E0
F000F0
F000F0
F000F0
F000F0
F000F0
F000F0
F000F0
F000F0
F000F0
F000F0
F000F0
F000F0
F000F0
F000F0
F001F0
FFFFF0
FFFFF0
FFFFF0
FFFFE0
ENDCHAR
STARTCHAR 00DF
ENCODING 223
SWIDTH 638 0
DWIDTH 23 0
BBX 20 20 2 1
BITMAP
FFFFE0
FFFFF0
FFFFF0
FFFFF0
F001F0
F000F0
F000F0
F001F0
F0FFF0
F0FFF0
F0FFF0
F0FFF0
F001F0
F000F0
F000F0
F001F0
F0FFF0
F0FFF0
F0FFF0
E0FFE0
ENDCHAR
STARTCHAR 00E0
ENCODING 224
SWIDTH 638 0
DWIDTH 23 0
BBX 20 31 2 0
BITMAP
008000
01C000
03E000
01F000
00F800
007800
003000
000000
000000
000000
000000
FFFFE0
FFFFF0
FFFFF0
FFFFF0
0001F0
0000F0
0000F0
0001F0
FFFFF0
FFFFF0
FFFFF0
FFFFF0
F001F0
F000F0
F000F0
F001F0
FFFFF0
FFFFF0
FFFFF0
FFFFE0
ENDCHAR
STARTCHAR 00E1
ENCODING 225
SWIDTH 638 0
DWIDTH 23 0
BBX 20 31 2 0
BITMAP
002000
007800
00F800
01F000
03E000
03C000
018000
000000
000000
000000
000000
FFFFE0
FFFFF0
FFFFF0
FFFFF0
0001F0
0000F0
0000F0
0001F0
FFFFF0
FFFFF0
FFFFF0
FFFFF0
F001F0
F000F0
F000F0
F001F0
FFFFF0
FFFFF0
FFFFF0
FFFFE0
ENDCHAR
STARTCHAR 00E2
ENCODING 226
SWIDTH 638 0
DWIDTH 23 0
BBX 20 31 2 1
BITMAP
00E000
01F000
03F800
07FC00
07FE00
07BC00
031800
000000
000000
000000
000000
FFFFE0
FFFFF0
FFFFF0
FFFFF0
0001F0
0000F0
0000F0
0001F0
FFFFF0
FFFFF0
FFFFF0
FFFFF0
F001F0
F000F0
F000F0
F001F0
FFFFF0
FFFFF0
FFFFF0
FFFFE0
ENDCHAR
STARTCHAR 00E3
ENCODING 227
SWIDTH 638 0
DWIDTH 23 0
BBX 20 31 2 0
BITMAP
018400
03CE00
07FF00
0FFE00
1FFC00
0F7800
063000
000000
000000
000000
000000
FFFFE0
FFFFF0
FFFFF0
FFFFF0
0001F0
0000F0
0000F0
0001F0
FFFFF0
FFFFF0
FFFFF0
FFFFF0
F001F0
F000F0
F000F0
F001F0
FFFFF0
FFFFF0
FFFFF0
FFFFE0
ENDCHAR
STARTCHAR 00E4
ENCODING 228
SWIDTH 638 0
DWIDTH 23 0
BBX 20 28 2 1
BITMAP
0E0E00
0F0F00
0F0F00
0E0E00
000000
000000
000000
000000
FFFFE0
FFFFF0
FFFFF0
FFFFF0
0001F0
0000F0
0000F0
0001F0
FFFFF0
FFFFF0
FFFFF0
FFFFF0
F001F0
F000F0
F000F0
F001F0
FFFFF0
FFFFF0
FFFFF0
FFFFE0
ENDCHAR
STARTCHAR 00E5
ENCODING 229
SWIDTH 638 0
DWIDTH 23 0
BBX 20 36 2 0
BITMAP
0FFE00
0FFF00
0FFF00
0FFF00
0F1F00
0F0F00
0F0F00
0F1F00
0FFF00
0FFF00
0FFF00
0FFE00
000000
000000
000000
000000
FFFFE0
FFFFF0
FFFFF0
FFFFF0
0001F0
0000F0
0000F0
0001F0
FFFFF0
FFFFF0
FFFFF0
FFFFF0
F001F0
F000F0
F000F0
F001F0
FFFFF0
FFFFF0
FFFFF0
FFFFE0
ENDCHAR
STARTCHAR 00E6
ENCODING 230
SWIDTH 638 0
DWIDTH 23 0
BBX 20 20 2 1
BITMAP
FFFFE0
FFFFF0
FFFFF0
FFFFF0
01F1F0
00F0F0
00F0F0
01F1F0
FFFFF0
FFFFF0
FFFFF0
FFFFE0
F1F000
F0F000
F0F000
F1F000
FFFFE0
FFFFF0
FFFFF0
FFFFE0
ENDCHAR
STARTCHAR 00E7
ENCODING 231
SWIDTH 638 0
DWIDTH 23 0
BBX 20 28 2 -7
BITMAP
FFFFE0
FFFFF0
FFFFF0
FFFFE0
F00000
F00000
F00000
F00000
F00000
F00000
F00000
F00000
F00000
F00000
F00000
F00000
FFFFE0
FFFFF0
FFFFF0
FFFFE0
001F00
000F00
000F00
001F00
00FF00
00FF00
00FF00
00FE00
ENDCHAR
STARTCHAR 00E8
ENCODING 232
SWIDTH 638 0
DWIDTH 23 0
BBX 20 31 2 0
BITMAP
008000
01C000
03E000
01F000
00F800
007800
003000
000000
000000
000000
000000
FFFFE0
FFFFF0
FFFFF0
FFFFF0
F001F0
F000F0
F000F0
F001F0
FFFFF0
FFFFF0
FFFFF0
FFFFE0
F00000
F00000
F00000
F00000
FFFFE0
FFFFF0
FFFFF0
FFFFE0
ENDCHAR
STARTCHAR 00E9
ENCODING 233
SWIDTH 638 0
DWIDTH 23 0
BBX 20 31 2 0
BITMAP
002000
007800
00F800
01F000
03E000
03C000
018000
000000
000000
000000
000000
FFFFE0
FFFFF0
FFFFF0
FFFFF0
F001F0
F000F0
F000F0
F001F0
FFFFF0
FFFFF0
FFFFF0
FFFFE0
F00000
F00000
F00000
F00000
FFFFE0
FFFFF0
FFFFF0
FFFFE0
ENDCHAR
STARTCHAR 00EA
ENCODING 234
SWIDTH 638 0
DWIDTH 23 0
BBX 20 31 2 1
BITMAP
00E000
01F000
03F800
07FC00
07FE00
07BC00
031800
000000
000000
000000
000000
FFFFE0
FFFFF0
FFFFF0
FFFFF0
F001F0
F000F0
F000F0
F001F0
FFFFF0
FFFFF0
FFFFF0
FFFFE0
F00000
F00000
F00000
F00000
FFFFE0
FFFFF0
FFFFF0
FFFFE0
ENDCHAR
STARTCHAR 00EB
ENCODING 235
SWIDTH 638 0
DWIDTH 23 0
BBX 20 28 2 1
BITMAP
0E0E00
0F0F00
0F0F00
0E0E00
000000
000000
000000
000000
FFFFE0
FFFFF0
FFFFF0
FFFFF0
F001F0
F000F0
F000F0
F001F0
FFFFF0
FFFFF0
FFFFF0
FFFFE0
F00000
F00000
F00000
F00000
FFFFE0
FFFFF0
FFFFF0
FFFFE0
ENDCHAR
STARTCHAR 00EC
ENCODING 236
SWIDTH 277 0
DWIDTH 10 0
BBX 6 31 2 0
BITMAP
60
F0
F8
FC
7C
3C
18
00
00
00
00
78
78
78
78
78
78
78
78
78
78
78
78
78
78
78
78
78
78
78
78
ENDCHAR
STARTCHAR 00ED
ENCODING 237
SWIDTH 277 0
DWIDTH 10 0
BBX 6 31 2 0
BITMAP
18
3C
7C
FC
F8
F0
60
00
00
00
00
78
78
78
78
78
78
78
78
78
78
78
78
78
78
78
78
78
78
78
78
ENDCHAR
STARTCHAR 00EE
ENCODING 238
SWIDTH 361 0
DWIDTH 13 0
BBX 10 31 2 1
BITMAP
1C00
3E00
7F00
FF80
FFC0
F780
6300
0000
0000
0000
0000
1C00
1E00
1E00
1E00
1E00
1E00
1E00
1E00
1E00
1E00
1E00
1E00
1E00
1E00
1E00
1E00
1E00
1E00
1E00
1C00
ENDCHAR
STARTCHAR 00EF
ENCODING 239
SWIDTH 416 0
DWIDTH 15 0
BBX 12 28 2 1
BITMAP
E0E0
F0F0
F0F0
E0E0
0000
0000
0000
0000
0E00
0F00
0F00
0F00
0F00
0F00
0F00
0F00
0F00
0F00
0F00
0F00
0F00
0F00
0F00
0F00
0F00
0F00
0F00
0E00
ENDCHAR
STARTCHAR 00F1
ENCODING 241
SWIDTH 638 0
DWIDTH 23 0
BBX 20 31 2 0
BITMAP
018400
03CE00
07FF00
0FFE00
1FFC00
0F7800
063000
000000
000000
000000
000000
FFFFE0
FFFFF0
FFFFF0
FFFFF0
F001F0
F000F0
F000F0
F000F0
F000F0
F000F0
F000F0
F000F0
F000F0
F000F0
F000F0
F000F0
F000F0
F000F0
F000F0
E000E0
ENDCHAR
STARTCHAR 00F2
ENCODING 242
SWIDTH 638 0
DWIDTH 23 0
BBX 20 31 2 0
BITMAP
008000
01C000
03E000
01F000
00F800
007800
003000
000000
000000
000000
000000
FFFFE0
FFFFF0
FFFFF0
FFFFF0
F001F0
F000F0
F000F0
F000F0
F000F0
F000F0
F000F0
F000F0
F000F0
F000F0
F000F0
F001F0
FFFFF0
FFFFF0
FFFFF0
FFFFE0
ENDCHAR
STARTCHAR 00F3
ENCODING 243
SWIDTH 638 0
DWIDTH 23 0
BBX 20 31 2 0
BITMAP
002000
007800
00F800
01F000
03E000
03C000
018000
000000
000000
000000
000000
FFFFE0
FFFFF0
FFFFF0
FFFFF0
F001F0
F000F0
F000F0
F000F0
F000F0
F000F0
F000F0
F000F0
F000F0
F000F0
F000F0
F001F0
FFFFF0
FFFFF0
FFFFF0
FFFFE0
ENDCHAR
STARTCHAR 00F4
ENCODING 244
SWIDTH 638 0
DWIDTH 23 0
BBX 20 31 2 1
BITMAP
00E000
01F000
03F800
07FC00
07FE00
07BC00
031800
000000
000000
000000
000000
FFFFE0
FFFFF0
FFFFF0
FFFFF0
F001F0
F000F0
F000F0
F000F0
F000F0
F000F0
F000F0
F000F0
F000F0
F000F0
F000F0
F001F0
FFFFF0
FFFFF0
FFFFF0
FFFFE0
ENDCHAR
STARTCHAR 00F5
ENCODING 245
SWIDTH 638 0
DWIDTH 23 0
BBX 20 31 2 0
BITMAP
018400
03CE00
07FF00
0FFE00
1FFC00
0F7800
063000
000000
000000
000000
000000
FFFFE0
FFFFF0
FFFFF0
FFFFF0
F001F0
F000F0
F000F0
F000F0
F000F0
F000F0
F000F0
F000F0
F000F0
F000F0
F000F0
F001F0
FFFFF0
FFFFF0
FFFFF0
FFFFE0
ENDCHAR
STARTCHAR 00F6
ENCODING 246
SWIDTH 638 0
DWIDTH 23 0
BBX 20 28 2 1
BITMAP
0E0E00
0F0F00
0F0F00
0E0E00
000000
000000
000000
000000
FFFFE0
FFFFF0
FFFFF0
FFFFF0
F001F0
F000F0
F000F0
F000F0
F000F0
F000F0
F000F0
F000F0
F000F0
F000F0
F000F0
F001F0
FFFFF0
FFFFF0
FFFFF0
FFFFE0
ENDCHAR
STARTCHAR 00F8
ENCODING 248
SWIDTH 638 0
DWIDTH 23 0
BBX 20 20 2 1
BITMAP
FFFFE0
FFFFF0
FFFFF0
FFFFF0
FF01F0
FF00F0
FF00F0
FE00F0
F000F0
F000F0
F000F0
F001F0
F00FF0
F00FF0
F00FF0
F01FF0
FFFFF0
FFFFF0
FFFFF0
FFFFE0
ENDCHAR
STARTCHAR 00F9
ENCODING 249
SWIDTH 638 0
DWIDTH 23 0
BBX 20 31 2 0
BITMAP
008000
01C000
03E000
01F000
00F800
007800
003000
000000
000000
000000
000000
E000E0
F000F0
F000F0
F000F0
F000F0
F000F0
F000F0
F000F0
F000F0
F000F0
F000F0
F000F0
F000F0
F000F0
F000F0
F001F0
FFFFF0
FFFFF0
FFFFF0
FFFFE0
ENDCHAR
STARTCHAR 00FA
ENCODING 250
SWIDTH 638 0
DWIDTH 23 0
BBX 20 31 2 0
BITMAP
002000
007800
00F800
01F000
03E000
03C000
018000
000000
000000
000000
000000
E000E0
F000F0
F000F0
F000F0
F000F0
F000F0
F000F0
F000F0
F000F0
F000F0
F000F0
F000F0
F000F0
F000F0
F000F0
F001F0
FFFFF0
FFFFF0
FFFFF0
FFFFE0
ENDCHAR
STARTCHAR 00FB
ENCODING 251
SWIDTH 638 0
DWIDTH 23 0
BBX 20 31 2 1
BITMAP
00E000
01F000
03F800
07FC00
07FE00
07BC00
031800
000000
000000
000000
000000
E000E0
F000F0
F000F0
F000F0
F000F0
F000F0
F000F0
F000F0
F000F0
F000F0
F000F0
F000F0
F000F0
F000F0
F000F0
F001F0
FFFFF0
FFFFF0
FFFFF0
FFFFE0
ENDCHAR
STARTCHAR 00FC
ENCODING 252
SWIDTH 638 0
DWIDTH 23 0
BBX 20 28 2 1
BITMAP
0E0E00
0F0F00
0F0F00
0E0E00
000000
000000
000000
000000
E000E0
F000F0
F000F0
F000F0
F000F0
F000F0
F000F0
F000F0
F000F0
F000F0
F000F0
F000F0
F000F0
F000F0
F000F0
F001F0
FFFFF0
FFFFF0
FFFFF0
FFFFE0
ENDCHAR
STARTCHAR 00FF
ENCODING 255
SWIDTH 638 0
DWIDTH 23 0
BBX 20 36 2 -7
BITMAP
0E0E00
0F0F00
0F0F00
0E0E00
000000
000000
000000
000000
E000E0
F000F0
F000F0
F000F0
F000F0
F000F0
F000F0
F000F0
F000F0
F000F0
F000F0
F000F0
F000F0
F000F0
F000F0
F001F0
FFFFF0
FFFFF0
FFFFF0
FFFFE0
01F000
00F000
00F000
00F000
00F000
00F000
00F000
00E000
ENDCHAR
STARTCHAR 0152
ENCODING 338
SWIDTH 638 0
DWIDTH 23 0
BBX 20 20 2 1
BITMAP
FFFFE0
FFFFF0
FFFFF0
FFFFE0
F1F000
F0F000
F0F000
F0F000
F0FFE0
F0FFF0
F0FFF0
F0FFE0
F0F000
F0F000
F0F000
F1F000
FFFFE0
FFFFF0
FFFFF0
FFFFE0
ENDCHAR
STARTCHAR 0153
ENCODING 339
SWIDTH 638 0
DWIDTH 23 0
BBX 20 20 2 1
BITMAP
FFFFE0
FFFFF0
FFFFF0
FFFFF0
F1F1F0
F0F0F0
F0F0F0
F0F1F0
F0FFF0
F0FFF0
F0FFF0
F0FFE0
F0F000
F0F000
F0F000
F1F000
FFFFE0
FFFFF0
FFFFF0
FFFFE0
ENDCHAR
STARTCHAR 0178
ENCODING 376
SWIDTH 638 0
DWIDTH 23 0
BBX 20 28 2 1
BITMAP
0E0E00
0F0F00
0F0F00
0E0E00
000000
000000
000000
000000
E000E0
F000F0
F000F0
F000F0
F000F0
F000F0
F000F0
F000F0
F000F0
F000F0
F000F0
F001F0
FFFFF0
FFFFF0
FFFFF0
FFFFE0
01F000
00F000
00F000
00E000
ENDCHAR
STARTCHAR 0192
ENCODING 402
SWIDTH 638 0
DWIDTH 23 0
BBX 20 28 2 -7
BITMAP
0FFFE0
0FFFF0
0FFFF0
0FFFE0
0F0000
0F0000
0F0000
1F0000
FFE000
FFF000
FFF000
FFE000
1F0000
0F0000
0F0000
0F0000
0F0000
0F0000
0F0000
0F0000
0F0000
0F0000
0F0000
1F0000
FF0000
FF0000
FF0000
FE0000
ENDCHAR
STARTCHAR 02C6
ENCODING 710
SWIDTH 361 0
DWIDTH 13 0
BBX 10 7 2 25
BITMAP
1C00
3E00
7F00
FF80
FFC0
F780
6300
ENDCHAR
STARTCHAR 02DC
ENCODING 732
SWIDTH 444 0
DWIDTH 16 0
BBX 12 7 2 23
BITMAP
1840
3CF0
7FF0
FFE0
FFC0
F780
6300
ENDCHAR
STARTCHAR 2013
ENCODING 8211
SWIDTH 361 0
DWIDTH 13 0
BBX 10 4 2 8
BITMAP
FF80
FFC0
FFC0
FF80
ENDCHAR
STARTCHAR 2014
ENCODING 8212
SWIDTH 638 0
DWIDTH 23 0
BBX 20 4 2 8
BITMAP
FFFFE0
FFFFF0
FFFFF0
FFFFE0
ENDCHAR
STARTCHAR 2018
ENCODING 8216
SWIDTH 305 0
DWIDTH 11 0
BBX 8 8 2 12
BITMAP
E0
F0
F0
F0
FE
FF
FF
FE
ENDCHAR
STARTCHAR 2019
ENCODING 8217
SWIDTH 305 0
DWIDTH 11 0
BBX 8 8 2 12
BITMAP
FE
FF
FF
FF
1F
0F
0F
0E
ENDCHAR
STARTCHAR 201A
ENCODING 8218
SWIDTH 305 0
DWIDTH 11 0
BBX 8 8 2 1
BITMAP
0E
0F
0F
1F
FF
FF
FF
FE
ENDCHAR
STARTCHAR 201C
ENCODING 8220
SWIDTH 500 0
DWIDTH 18 0
BBX 14 8 2 12
BITMAP
E03C
F03C
F03C
F03C
FE3C
FF3C
FF3C
FE3C
ENDCHAR
STARTCHAR 201D
ENCODING 8221
SWIDTH 500 0
DWIDTH 18 0
BBX 14 8 2 12
BITMAP
E3FC
F3FC
F3FC
F3FC
F03C
F03C
F03C
E03C
ENDCHAR
STARTCHAR 201E
ENCODING 8222
SWIDTH 638 0
DWIDTH 23 0
BBX 20 8 2 1
BITMAP
0E00E0
0F00F0
0F00F0
1F01F0
FF0FF0
FF0FF0
FF0FF0
FE0FE0
ENDCHAR
STARTCHAR 2020
ENCODING 8224
SWIDTH 416 0
DWIDTH 15 0
BBX 12 20 2 1
BITMAP
0E00
0F00
0F00
1F00
FFC0
FFF0
FFF0
FFE0
1F00
0F00
0F00
0F00
0F00
0F00
0F00
0F00
0F00
0F00
0F00
0E00
ENDCHAR
STARTCHAR 2021
ENCODING 8225
SWIDTH 416 0
DWIDTH 15 0
BBX 12 20 2 1
BITMAP
0E00
0F00
0F00
1F00
FFE0
FFF0
FFF0
FFE0
1F00
0F00
0F00
1F00
FFE0
FFF0
FFF0
FFE0
1F00
0F00
0F00
0E00
ENDCHAR
STARTCHAR 2022
ENCODING 8226
SWIDTH 305 0
DWIDTH 11 0
BBX 8 8 2 6
BITMAP
FE
FF
FF
FF
FF
FF
FF
FE
ENDCHAR
STARTCHAR 2026
ENCODING 8230
SWIDTH 638 0
DWIDTH 23 0
BBX 20 4 2 0
BITMAP
E0E0E0
F0F0F0
F0F0F0
E0E0E0
ENDCHAR
STARTCHAR 2030
ENCODING 8240
SWIDTH 750 0
DWIDTH 27 0
BBX 24 20 2 1
BITMAP
E00E00
F00F00
F00F00
E00F00
000F00
000F00
000F00
001F00
0FFF00
0FFF00
0FFF00
0FFE00
0F0000
0F0000
0F0000
0F0000
0F0E0E
0F0F0F
0F0F0F
0E0E0E
ENDCHAR
STARTCHAR 2039
ENCODING 8249
SWIDTH 305 0
DWIDTH 11 0
BBX 7 10 2 5
BITMAP
0C
1E
3E
7C
F8
F8
7C
3E
1E
0C
ENDCHAR
STARTCHAR 203A
ENCODING 8250
SWIDTH 305 0
DWIDTH 11 0
BBX 7 10 2 5
BITMAP
60
F0
F8
FC
7E
7E
FC
F8
F0
60
ENDCHAR
STARTCHAR 2044
ENCODING 8260
SWIDTH 611 0
DWIDTH 22 0
BBX 18 18 2 1
BITMAP
0001C0
0003C0
0007C0
000F80
001F00
003E00
007C00
00F800
01F000
03E000
07C000
0F8000
1F0000
3E0000
7C0000
F80000
F00000
E00000
ENDCHAR
STARTCHAR 2122
ENCODING 8482
SWIDTH 500 0
DWIDTH 18 0
BBX 14 7 2 14
BITMAP
FCFC
70BC
30B4
30B4
30B4
30B4
0084
ENDCHAR
STARTCHAR 2264
ENCODING 8804
SWIDTH 333 0
DWIDTH 12 0
BBX 8 16 2 2
BITMAP
0C
1E
3F
7E
FC
FC
7E
3E
1E
0E
00
00
FF
FF
FF
7E
ENDCHAR
STARTCHAR 2265
ENCODING 8805
SWIDTH 333 0
DWIDTH 12 0
BBX 8 16 2 2
BITMAP
60
F0
F8
7C
3E
3F
7E
FC
F8
70
00
00
FF
FF
FF
7E
ENDCHAR
STARTCHAR F8FF
ENCODING 63743
SWIDTH 638 0
DWIDTH 23 0
BBX 20 20 2 1
BITMAP
E0E0E0
F0F0F0
F0F0F0
E0E0E0
0E0E00
0F0F00
0F0F00
0E0E00
E0E0E0
F0F0F0
F0F0F0
E0E0E0
0E0E00
0F0F00
0F0F00
0E0E00
E0E0E0
F0F0F0
F0F0F0
E0E0E0
ENDCHAR
ENDFONT
